<svg width="35" height="32" viewBox="0 0 35 32" fill="none" xmlns="http://www.w3.org/2000/svg">
<path d="M18.779 4.80001C18.779 3.91636 18.0147 3.20001 17.0718 3.20001C16.1289 3.20001 15.3646 3.91636 15.3646 4.80001V6.40001C15.3646 7.28367 16.1289 8.00001 17.0718 8.00001C18.0147 8.00001 18.779 7.28367 18.779 6.40001V4.80001Z" fill="#392368"/>
<path d="M26.7292 9.2117C27.3959 8.58686 27.3959 7.5738 26.7292 6.94896C26.0625 6.32412 24.9815 6.32412 24.3148 6.94896L23.1076 8.08033C22.4409 8.70517 22.4409 9.71824 23.1076 10.3431C23.7744 10.9679 24.8553 10.9679 25.522 10.3431L26.7292 9.2117Z" fill="#392368"/>
<path d="M30.7295 16C30.7295 16.8837 29.9652 17.6 29.0223 17.6H27.3151C26.3722 17.6 25.6079 16.8837 25.6079 16C25.6079 15.1164 26.3722 14.4 27.3151 14.4H29.0223C29.9652 14.4 30.7295 15.1164 30.7295 16Z" fill="#392368"/>
<path d="M8.62139 10.3431C9.2881 10.9679 10.3691 10.9679 11.0358 10.3431C11.7025 9.71826 11.7025 8.7052 11.0358 8.08036L9.82858 6.94899C9.16187 6.32415 8.08092 6.32415 7.41421 6.94899C6.7475 7.57383 6.7475 8.58689 7.41421 9.21173L8.62139 10.3431Z" fill="#392368"/>
<path d="M8.53571 16C8.53571 16.8837 7.77137 17.6 6.8285 17.6H5.12128C4.17841 17.6 3.41406 16.8837 3.41406 16C3.41406 15.1164 4.17841 14.4 5.12128 14.4H6.8285C7.77137 14.4 8.53571 15.1164 8.53571 16Z" fill="#392368"/>
<path d="M13.6574 25.6V24H20.4862V25.6C20.4862 27.3673 18.9575 28.8 17.0718 28.8C15.1861 28.8 13.6574 27.3673 13.6574 25.6Z" fill="#392368"/>
<path d="M20.4878 22.4C20.5127 21.8555 20.8406 21.3659 21.3002 21.0258C22.8841 19.8538 23.9007 18.0381 23.9007 16C23.9007 12.4654 20.8433 9.60001 17.0718 9.60001C13.3003 9.60001 10.2429 12.4654 10.2429 16C10.2429 18.0381 11.2595 19.8538 12.8433 21.0258C13.303 21.3659 13.6309 21.8555 13.6558 22.4H20.4878Z" fill="#392368"/>
</svg>
