<svg width="26" height="32" viewBox="0 0 26 32" fill="none" xmlns="http://www.w3.org/2000/svg">
<path fill-rule="evenodd" clip-rule="evenodd" d="M22.8076 15.0297C18.1554 13.5627 14.5201 9.116 13.3208 3.42543L12.8043 0.975616L12.2879 3.42543C11.0886 9.116 7.45328 13.5627 2.80112 15.0297L0.79834 15.6615L2.80112 16.2945C7.45328 17.7615 11.0886 22.2082 12.2879 27.8975L12.8043 30.3486L13.3208 27.8975C14.5201 22.2082 18.1554 17.7615 22.8076 16.2945L24.8103 15.6615L22.8076 15.0297Z" fill="#392368"/>
<path fill-rule="evenodd" clip-rule="evenodd" d="M20.0077 10.1111C20.0077 8.59446 21.3671 6.84944 22.6742 6.84944C21.4162 6.84944 20.0077 5.08615 20.0077 3.58911C20.0077 5.08615 18.6121 6.84944 17.3423 6.84944C18.5641 6.84944 20.0077 8.58533 20.0077 10.1111Z" fill="#392368"/>
</svg>
