<svg width="13" height="14" viewBox="0 0 13 14" fill="none" xmlns="http://www.w3.org/2000/svg">
<path fill-rule="evenodd" clip-rule="evenodd" d="M0.910156 6.71414C0.910156 4.11915 0.910156 2.82165 1.47269 1.88711C1.72389 1.46979 2.04902 1.11239 2.42866 0.836259C3.27883 0.217896 4.45918 0.217896 6.81987 0.217896C9.18056 0.217896 10.3609 0.217896 11.2111 0.836259C11.5907 1.11239 11.9158 1.46979 12.167 1.88711C12.7296 2.82165 12.7296 4.11915 12.7296 6.71414C12.7296 9.30912 12.7296 10.6066 12.167 11.5412C11.9158 11.9585 11.5907 12.3159 11.2111 12.592C10.3609 13.2104 9.18056 13.2104 6.81987 13.2104C4.45918 13.2104 3.27883 13.2104 2.42866 12.592C2.04902 12.3159 1.72389 11.9585 1.47269 11.5412C0.910156 10.6066 0.910156 9.30912 0.910156 6.71414ZM9.87929 6.7143C9.87929 8.57173 8.5095 10.0775 6.81976 10.0775C5.13003 10.0775 3.76023 8.57173 3.76023 6.7143C3.76023 4.85687 5.13003 3.35112 6.81976 3.35112C8.5095 3.35112 9.87929 4.85687 9.87929 6.7143ZM6.81976 8.93963C7.93781 8.93963 8.84417 7.94331 8.84417 6.7143C8.84417 5.48529 7.93781 4.48897 6.81976 4.48897C5.70171 4.48897 4.79536 5.48529 4.79536 6.7143C4.79536 7.94331 5.70171 8.93963 6.81976 8.93963ZM10.0001 3.9724C10.3972 3.9724 10.719 3.61859 10.719 3.18215C10.719 2.74571 10.3972 2.3919 10.0001 2.3919C9.6031 2.3919 9.28123 2.74571 9.28123 3.18215C9.28123 3.61859 9.6031 3.9724 10.0001 3.9724Z" fill="white"/>
</svg>
