<svg width="12" height="12" viewBox="0 0 12 12" fill="none" xmlns="http://www.w3.org/2000/svg">
<path d="M0 1.61321C0 1.2284 0.135139 0.910937 0.405405 0.660825C0.675672 0.410701 1.02703 0.285645 1.45946 0.285645C1.88417 0.285645 2.2278 0.408773 2.49035 0.655053C2.76061 0.909021 2.89575 1.23994 2.89575 1.64784C2.89575 2.01725 2.76448 2.32508 2.50193 2.57136C2.23166 2.82533 1.87645 2.95231 1.43629 2.95231H1.42471C0.999996 2.95231 0.656375 2.82533 0.393822 2.57136C0.13127 2.31739 0 1.998 0 1.61321ZM0.150579 11.7142V4.00281H2.72201V11.7142H0.150579ZM4.14672 11.7142H6.71815V7.4083C6.71815 7.13893 6.74904 6.93114 6.81081 6.78492C6.91891 6.52325 7.08301 6.30199 7.30309 6.12114C7.52317 5.94028 7.79922 5.84986 8.13127 5.84986C8.99614 5.84986 9.42857 6.4309 9.42857 7.593V11.7142H12V7.29286C12 6.15384 11.7297 5.28997 11.1892 4.70123C10.6486 4.11248 9.93437 3.81811 9.04633 3.81811C8.05019 3.81811 7.27413 4.24524 6.71815 5.0995V5.12258H6.70656L6.71815 5.0995V4.00281H4.14672C4.16216 4.24908 4.16988 5.01483 4.16988 6.30007C4.16988 7.5853 4.16216 9.39001 4.14672 11.7142Z" fill="white"/>
</svg>
