<svg width="13" height="13" viewBox="0 0 13 13" fill="none" xmlns="http://www.w3.org/2000/svg">
<path d="M0.375 1.96464C0.375 1.54801 0.508105 1.20429 0.774305 0.933493C1.0405 0.662682 1.38658 0.527283 1.8125 0.527283C2.23082 0.527283 2.56927 0.660595 2.82787 0.927244C3.09407 1.20222 3.22718 1.56051 3.22718 2.00214C3.22718 2.4021 3.09788 2.73539 2.83928 3.00204C2.57308 3.27701 2.22321 3.4145 1.78968 3.4145H1.77827C1.35995 3.4145 1.0215 3.27701 0.762896 3.00204C0.504295 2.72707 0.375 2.38126 0.375 1.96464ZM0.523313 12.9011V4.55189H3.05605V12.9011H0.523313ZM4.45932 12.9011H6.99205V8.23903C6.99205 7.94738 7.02248 7.7224 7.08332 7.56409C7.1898 7.28078 7.35143 7.04122 7.56819 6.84541C7.78496 6.6496 8.05686 6.55169 8.38392 6.55169C9.23577 6.55169 9.66169 7.18079 9.66169 8.43901V12.9011H12.1944V8.11404C12.1944 6.88082 11.9282 5.9455 11.3958 5.30806C10.8634 4.67063 10.1599 4.35191 9.2852 4.35191C8.30405 4.35191 7.53967 4.81436 6.99205 5.73927V5.76427H6.98064L6.99205 5.73927V4.55189H4.45932C4.47453 4.81852 4.48214 5.64761 4.48214 7.03914C4.48214 8.43067 4.47453 10.3846 4.45932 12.9011Z" fill="white"/>
</svg>
