<svg width="26" height="24" viewBox="0 0 26 24" fill="none" xmlns="http://www.w3.org/2000/svg">
<g clip-path="url(#clip0_228_611)">
<path d="M14.805 19.125H10.8037L11.2038 16.875H14.4049L14.805 19.125Z" fill="#392368"/>
<path d="M7.40254 19.875H18.6061C18.9245 19.875 19.2298 19.9935 19.4549 20.2045C19.6801 20.4155 19.8065 20.7016 19.8065 21V22.125C19.8065 22.2245 19.7644 22.3198 19.6893 22.3902C19.6143 22.4605 19.5125 22.5 19.4064 22.5H6.60228C6.49616 22.5 6.39438 22.4605 6.31934 22.3902C6.2443 22.3198 6.20215 22.2245 6.20215 22.125V21C6.20215 20.7016 6.32862 20.4155 6.55373 20.2045C6.77885 19.9935 7.08417 19.875 7.40254 19.875Z" fill="#392368"/>
<path d="M25.6085 11.4375V2.625C25.6075 2.0783 25.3753 1.55427 24.9628 1.16769C24.5503 0.781108 23.9911 0.563491 23.4078 0.5625H2.6011C2.01776 0.563491 1.45862 0.781108 1.04613 1.16769C0.633648 1.55427 0.401448 2.0783 0.400391 2.625V11.4375H25.6085Z" fill="#392368"/>
<path d="M0.400391 12.5625V14.25C0.401448 14.7967 0.633648 15.3207 1.04613 15.7073C1.45862 16.0939 2.01776 16.3115 2.6011 16.3125H23.4078C23.9911 16.3115 24.5503 16.0939 24.9628 15.7073C25.3753 15.3207 25.6075 14.7967 25.6085 14.25V12.5625H0.400391ZM17.6059 14.625C17.4872 14.625 17.3712 14.592 17.2725 14.5302C17.1738 14.4684 17.0969 14.3805 17.0514 14.2778C17.006 14.175 16.9941 14.0619 17.0173 13.9528C17.0404 13.8436 17.0976 13.7434 17.1815 13.6648C17.2655 13.5861 17.3724 13.5325 17.4888 13.5108C17.6053 13.4891 17.7259 13.5002 17.8356 13.5428C17.9453 13.5854 18.039 13.6575 18.105 13.75C18.1709 13.8425 18.2061 13.9512 18.2061 14.0625C18.2061 14.2117 18.1429 14.3548 18.0303 14.4602C17.9178 14.5657 17.7651 14.625 17.6059 14.625ZM20.0067 14.625C19.888 14.625 19.772 14.592 19.6733 14.5302C19.5746 14.4684 19.4976 14.3805 19.4522 14.2778C19.4068 14.175 19.3949 14.0619 19.418 13.9528C19.4412 13.8436 19.4984 13.7434 19.5823 13.6648C19.6662 13.5861 19.7732 13.5325 19.8896 13.5108C20.006 13.4891 20.1267 13.5002 20.2364 13.5428C20.3461 13.5854 20.4398 13.6575 20.5057 13.75C20.5717 13.8425 20.6069 13.9512 20.6069 14.0625C20.6069 14.2117 20.5437 14.3548 20.4311 14.4602C20.3185 14.5657 20.1659 14.625 20.0067 14.625ZM22.4075 14.625C22.2888 14.625 22.1727 14.592 22.074 14.5302C21.9753 14.4684 21.8984 14.3805 21.853 14.2778C21.8075 14.175 21.7957 14.0619 21.8188 13.9528C21.842 13.8436 21.8991 13.7434 21.9831 13.6648C22.067 13.5861 22.174 13.5325 22.2904 13.5108C22.4068 13.4891 22.5275 13.5002 22.6372 13.5428C22.7468 13.5854 22.8406 13.6575 22.9065 13.75C22.9725 13.8425 23.0077 13.9512 23.0077 14.0625C23.0077 14.2117 22.9444 14.3548 22.8319 14.4602C22.7193 14.5657 22.5667 14.625 22.4075 14.625Z" fill="#392368"/>
</g>
<defs>
<clipPath id="clip0_228_611">
<rect width="25.6082" height="24" fill="white"/>
</clipPath>
</defs>
</svg>
