<?xml version="1.0" encoding="UTF-8"?>
<svg version="1.1" xmlns="http://www.w3.org/2000/svg" width="134" height="154">
<path d="M0 0 C1.14533203 0.01023193 2.29066406 0.02046387 3.47070312 0.03100586 C14.69183029 0.31313249 22.33381518 2.60181632 31.375 9.4375 C34.63370263 11.86184882 36.47546484 13.03992358 40.5625 12.5625 C42.08519309 12.23776796 43.60590627 11.90367351 45.125 11.5625 C47.14337625 11.3501773 49.16454108 11.16297495 51.1875 11 C52.59708984 10.87431641 52.59708984 10.87431641 54.03515625 10.74609375 C55.06962891 10.65521484 55.06962891 10.65521484 56.125 10.5625 C57.19134702 14.44950689 57.11072982 16.58631092 55.4375 20.25 C55.10363281 21.01699219 54.76976563 21.78398438 54.42578125 22.57421875 C52.91827208 24.87848952 51.65485596 25.56653566 49.125 26.5625 C49.45113281 27.18253906 49.77726562 27.80257812 50.11328125 28.44140625 C57.83737734 44.09466293 58.64448681 58.99104835 54.125 75.5625 C48.34972607 90.19660119 38.45660442 101.77900461 24.125 108.5625 C9.00760647 113.75032685 -2.40894716 114.63506564 -17.875 110.5625 C-18.07996094 111.26117188 -18.28492188 111.95984375 -18.49609375 112.6796875 C-18.76550781 113.58976562 -19.03492188 114.49984375 -19.3125 115.4375 C-19.57933594 116.34242188 -19.84617188 117.24734375 -20.12109375 118.1796875 C-20.875 120.5625 -20.875 120.5625 -21.875 122.5625 C-22.535 122.5625 -23.195 122.5625 -23.875 122.5625 C-23.875 123.2225 -23.875 123.8825 -23.875 124.5625 C-27.81187957 126.75982813 -30.38796237 127.74595639 -34.875 127.5625 C-34.86863525 126.77601074 -34.86227051 125.98952148 -34.85571289 125.17919922 C-34.84700065 121.59767771 -34.89172773 118.01872255 -34.9375 114.4375 C-34.92654297 113.2 -34.91558594 111.9625 -34.90429688 110.6875 C-34.83542277 104.23040099 -34.83542277 104.23040099 -37.36816406 98.51904297 C-39.13407114 97.0452655 -40.94605751 95.81049705 -42.875 94.5625 C-55.35757661 80.16688482 -57.08090708 63.81616054 -55.875 45.5625 C-54.65320544 36.45362269 -50.24005555 28.86493673 -44.875 21.5625 C-44.37484375 20.85480469 -43.8746875 20.14710937 -43.359375 19.41796875 C-39.9122056 15.00454733 -35.77659399 11.87745008 -31.125 8.8125 C-30.57706787 8.44753418 -30.02913574 8.08256836 -29.46459961 7.70654297 C-20.0936911 1.82733812 -10.98352897 -0.14770619 0 0 Z M-25.875 21.5625 C-25.875 22.2225 -25.875 22.8825 -25.875 23.5625 C-26.72578125 23.64951172 -26.72578125 23.64951172 -27.59375 23.73828125 C-32.79982399 25.61924291 -36.19840067 31.87035009 -38.875 36.5625 C-44.23296944 49.12601455 -44.15199023 60.90740043 -40.140625 73.78515625 C-38.7840374 76.76211238 -37.2225837 78.33038591 -34.875 80.5625 C-34.86041748 79.67578613 -34.84583496 78.78907227 -34.83081055 77.87548828 C-34.76921681 74.53897924 -34.69497118 71.20322286 -34.61254883 67.8671875 C-34.57959645 66.43207141 -34.55147537 64.99683495 -34.52856445 63.56152344 C-34.33055839 51.478941 -33.5992794 40.72003932 -24.875 31.5625 C-16.43903624 23.8600983 -6.817996 21.94953132 4.125 19.875 C5.28128906 19.65005859 6.43757813 19.42511719 7.62890625 19.19335938 C10.45980455 18.64355681 13.291766 18.10011253 16.125 17.5625 C15.23198324 15.20002359 15.23198324 15.20002359 12.04296875 14.4609375 C-0.54337659 11.19650449 -15.70929608 13.09108006 -25.875 21.5625 Z M26.125 32.5625 C26.53492188 33.17996094 26.94484375 33.79742187 27.3671875 34.43359375 C33.22551013 43.64153147 35.66515627 52.50197413 33.58984375 63.36328125 C31.05924731 73.58246578 25.68796322 80.4460977 17.125 86.5625 C10.44127814 89.84359982 4.64057314 90.70041401 -2.75 90.625 C-3.90242188 90.61597656 -5.05484375 90.60695312 -6.2421875 90.59765625 C-7.11101563 90.58605469 -7.97984375 90.57445312 -8.875 90.5625 C-8.63348033 83.43766961 -8.63348033 83.43766961 -5.4375 79.75 C-2.02650441 77.28422006 1.70989071 76.38458676 5.7265625 75.29296875 C10.52207721 73.83244554 13.34503148 71.50667242 16.5 67.6875 C19.33002134 62.240597 18.90321054 55.4937263 18.125 49.5625 C16.86519998 46.66824577 16.86519998 46.66824577 15.125 44.5625 C14.465 44.5625 13.805 44.5625 13.125 44.5625 C13.125 43.9025 13.125 43.2425 13.125 42.5625 C8.258002 38.33589648 3.52665 37.3246678 -2.875 37.5625 C-8.15763436 38.53316073 -11.84284025 40.97257935 -15.6484375 44.671875 C-19.35601743 50.38674342 -19.14701049 56.87599072 -19.0703125 63.43359375 C-19.0674826 64.355923 -19.06465271 65.27825226 -19.06173706 66.22853088 C-19.05060974 69.15249013 -19.02551912 72.07613451 -19 75 C-18.98996057 76.99153201 -18.9808364 78.98306886 -18.97265625 80.97460938 C-18.95069483 85.8373595 -18.91621673 90.6998765 -18.875 95.5625 C-17.26214111 96.28808105 -17.26214111 96.28808105 -15.61669922 97.02832031 C-15.01187714 97.30041321 -14.40705505 97.5725061 -13.78390503 97.85284424 C-10.60563169 99.03440118 -7.3531809 99.18336077 -4 99.3125 C-3.29383545 99.3434375 -2.5876709 99.374375 -1.86010742 99.40625 C0.13425671 99.47968189 2.1296924 99.52215 4.125 99.5625 C4.97707031 99.58828125 5.82914063 99.6140625 6.70703125 99.640625 C15.65767065 99.3085048 24.59410628 93.3385668 31.125 87.5625 C40.8016243 75.91433894 43.91203383 64.70291539 42.94140625 49.73046875 C41.84643033 42.742942 38.48466387 36.71131878 35.125 30.5625 C31.74476483 30.5625 29.29031063 31.43705622 26.125 32.5625 Z " fill="#75618C" transform="translate(65.875,15.4375)"/>
<path d="M0 0 C1.14533203 0.01023193 2.29066406 0.02046387 3.47070312 0.03100586 C14.69183029 0.31313249 22.33381518 2.60181632 31.375 9.4375 C34.63370263 11.86184882 36.47546484 13.03992358 40.5625 12.5625 C42.08519309 12.23776796 43.60590627 11.90367351 45.125 11.5625 C47.14337625 11.3501773 49.16454108 11.16297495 51.1875 11 C52.59708984 10.87431641 52.59708984 10.87431641 54.03515625 10.74609375 C55.06962891 10.65521484 55.06962891 10.65521484 56.125 10.5625 C57.19134702 14.44950689 57.11072982 16.58631092 55.4375 20.25 C55.10363281 21.01699219 54.76976563 21.78398438 54.42578125 22.57421875 C52.91827208 24.87848952 51.65485596 25.56653566 49.125 26.5625 C49.45113281 27.18253906 49.77726562 27.80257812 50.11328125 28.44140625 C58.10215377 44.63124525 57.84406751 58.56104852 54.125 75.5625 C53.795 75.5625 53.465 75.5625 53.125 75.5625 C53.1564209 74.34687378 53.1564209 74.34687378 53.18847656 73.10668945 C53.25758507 70.03332922 53.30724459 66.96037113 53.34472656 63.88647461 C53.37419327 61.92860224 53.42507758 59.97108901 53.4765625 58.01367188 C53.55571466 50.236972 52.71391469 43.78990654 50.08886719 36.45385742 C49.10241565 33.49475266 48.56126737 30.64642941 48.125 27.5625 C46.64 28.0575 46.64 28.0575 45.125 28.5625 C43.73060336 28.62915376 42.33330125 28.64788199 40.9375 28.625 C39.0503125 28.5940625 39.0503125 28.5940625 37.125 28.5625 C37.125 28.2325 37.125 27.9025 37.125 27.5625 C39.04557292 27.10677083 40.96614583 26.65104167 42.88671875 26.1953125 C48.06076658 24.95370404 48.06076658 24.95370404 51.48828125 21.1796875 C51.80152344 20.27476563 52.11476563 19.36984375 52.4375 18.4375 C52.76363281 17.52742188 53.08976562 16.61734375 53.42578125 15.6796875 C53.65652344 14.98101562 53.88726562 14.28234375 54.125 13.5625 C50.02017579 14.2041993 45.91626508 14.85156473 41.8125 15.5 C40.64525391 15.68240234 39.47800781 15.86480469 38.27539062 16.05273438 C37.15712891 16.22998047 36.03886719 16.40722656 34.88671875 16.58984375 C33.3392395 16.83335571 33.3392395 16.83335571 31.76049805 17.08178711 C29.03009209 17.51587788 29.03009209 17.51587788 26.125 18.5625 C19.76229748 19.58507719 13.56116295 19.66898064 7.125 19.5625 C7.125 19.2325 7.125 18.9025 7.125 18.5625 C9.765 17.9025 12.405 17.2425 15.125 16.5625 C3.51289115 12.80696674 -8.80021693 13.28963354 -19.875 18.5625 C-21.21287397 19.55641701 -22.54722914 20.55512602 -23.875 21.5625 C-24.535 21.5625 -25.195 21.5625 -25.875 21.5625 C-25.875 22.2225 -25.875 22.8825 -25.875 23.5625 C-26.803125 23.68625 -26.803125 23.68625 -27.75 23.8125 C-30.56701119 24.80673924 -30.60263334 25.93230922 -31.875 28.5625 C-32.8184398 29.70001884 -33.77790204 30.82437228 -34.75 31.9375 C-41.44289537 40.77933972 -43.19670652 52.75560549 -41.875 63.5625 C-40.21758261 71.73716076 -40.21758261 71.73716076 -35.875 78.5625 C-35.85518066 77.70495117 -35.83536133 76.84740234 -35.81494141 75.96386719 C-35.73670479 72.77302358 -35.65000657 69.5825526 -35.55761719 66.39208984 C-35.51940662 65.01294757 -35.48453998 63.63370833 -35.453125 62.25439453 C-35.40730376 60.26833033 -35.34833737 58.28258321 -35.2890625 56.296875 C-35.2576416 55.10288086 -35.2262207 53.90888672 -35.19384766 52.67871094 C-34.875 49.5625 -34.875 49.5625 -32.875 45.5625 C-33.205 58.1025 -33.535 70.6425 -33.875 83.5625 C-34.535 83.5625 -35.195 83.5625 -35.875 83.5625 C-35.545 84.5525 -35.215 85.5425 -34.875 86.5625 C-34.75867271 88.08016539 -34.70003761 89.6029346 -34.6875 91.125 C-34.67332031 91.91003906 -34.65914062 92.69507812 -34.64453125 93.50390625 C-34.875 95.5625 -34.875 95.5625 -36.875 97.5625 C-35.39 98.5525 -35.39 98.5525 -33.875 99.5625 C-33.53442383 102.26806641 -33.53442383 102.26806641 -33.58203125 105.6640625 C-33.59169922 106.87578125 -33.60136719 108.0875 -33.61132812 109.3359375 C-33.63646484 110.60695313 -33.66160156 111.87796875 -33.6875 113.1875 C-33.70780273 115.105625 -33.70780273 115.105625 -33.72851562 117.0625 C-33.76396804 120.22958282 -33.81338559 123.39583541 -33.875 126.5625 C-32.555 126.8925 -31.235 127.2225 -29.875 127.5625 C-31.525 127.5625 -33.175 127.5625 -34.875 127.5625 C-34.86863525 126.77601074 -34.86227051 125.98952148 -34.85571289 125.17919922 C-34.84700065 121.59767771 -34.89172773 118.01872255 -34.9375 114.4375 C-34.92654297 113.2 -34.91558594 111.9625 -34.90429688 110.6875 C-34.83542277 104.23040099 -34.83542277 104.23040099 -37.36816406 98.51904297 C-39.13407114 97.0452655 -40.94605751 95.81049705 -42.875 94.5625 C-55.35757661 80.16688482 -57.08090708 63.81616054 -55.875 45.5625 C-54.65320544 36.45362269 -50.24005555 28.86493673 -44.875 21.5625 C-44.37484375 20.85480469 -43.8746875 20.14710937 -43.359375 19.41796875 C-39.9122056 15.00454733 -35.77659399 11.87745008 -31.125 8.8125 C-30.57706787 8.44753418 -30.02913574 8.08256836 -29.46459961 7.70654297 C-20.0936911 1.82733812 -10.98352897 -0.14770619 0 0 Z " fill="#4192B9" transform="translate(65.875,15.4375)"/>
<path d="M0 0 C0.81690177 2.22763988 1.62861872 4.4569486 2.4375 6.6875 C2.66759766 7.31333984 2.89769531 7.93917969 3.13476562 8.58398438 C6.55025386 18.03845179 6.18213662 27.09176765 6 37 C5.97486328 38.84078125 5.97486328 38.84078125 5.94921875 40.71875 C5.46230903 52.40458329 0.31987777 61.57092348 -7.80859375 69.83984375 C-19.36627021 80.46732492 -34.31180332 86.40889394 -50.09375 86.21875 C-55.4827205 85.81312856 -60.95355487 84.96576642 -66 83 C-68.5206181 79.5043577 -68.22579038 76.21475374 -68 72 C-67.5 69.5625 -67.5 69.5625 -67 68 C-66.00742188 68.31582031 -65.01484375 68.63164063 -63.9921875 68.95703125 C-57.49312007 70.80807283 -50.71374568 70.80313587 -44 71 C-43.14792969 71.02707031 -42.29585937 71.05414063 -41.41796875 71.08203125 C-33.31487898 70.76632645 -24.55398588 65.6937088 -19 60 C-18.34 60 -17.68 60 -17 60 C-16.731875 59.44183594 -16.46375 58.88367188 -16.1875 58.30859375 C-14.45386159 54.93826381 -12.42966277 51.75747952 -10.4375 48.53515625 C-5.34516949 39.55438859 -4.73392928 27.39623967 -7.1875 17.39453125 C-8.75861136 12.7642848 -10.82232564 8.37197218 -13 4 C-16.3 4.66 -19.6 5.32 -23 6 C-23 5.34 -23 4.68 -23 4 C-22.34 4 -21.68 4 -21 4 C-21 3.34 -21 2.68 -21 2 C-18.06271706 1.66465271 -15.12520182 1.33163987 -12.1875 1 C-11.35412109 0.90460937 -10.52074219 0.80921875 -9.66210938 0.7109375 C-8.85966797 0.62070312 -8.05722656 0.53046875 -7.23046875 0.4375 C-6.49207764 0.35371094 -5.75368652 0.26992188 -4.99291992 0.18359375 C-3 0 -3 0 0 0 Z " fill="#BA5D7B" transform="translate(114,43)"/>
<path d="M0 0 C3.945119 2.08421381 6.66264249 4.20768797 9 8 C9.75372168 12.95830637 9.61545126 17.57327207 7.625 22.1875 C7.08875 22.785625 6.5525 23.38375 6 24 C5.34 24 4.68 24 4 24 C4 24.66 4 25.32 4 26 C-2.09745225 27.59490703 -7.08896551 28.89756593 -13 26 C-16.09029716 23.29402914 -17.71531009 20.5807782 -18.4453125 16.52734375 C-18.63947512 12.23634991 -18.22702067 9.48023603 -16.375 5.5625 C-11.75979175 0.58293321 -6.64546766 -1.20706099 0 0 Z " fill="#4F98B8" transform="translate(70,58)"/>
<path d="M0 0 C2.67896954 0.96740567 4.68064728 1.69205273 6.75 3.6875 C10.42760722 5.83277088 13.92544947 4.6197735 18 4 C20.01959507 3.79960204 22.04050946 3.61207908 24.0625 3.4375 C25.00222656 3.35371094 25.94195312 3.26992188 26.91015625 3.18359375 C27.94462891 3.09271484 27.94462891 3.09271484 29 3 C30.06634702 6.88700689 29.98572982 9.02381092 28.3125 12.6875 C27.97863281 13.45449219 27.64476563 14.22148438 27.30078125 15.01171875 C25.79327208 17.31598952 24.52985596 18.00403566 22 19 C22.32613281 19.62003906 22.65226562 20.24007812 22.98828125 20.87890625 C30.97715377 37.06874525 30.71906751 50.99854852 27 68 C26.67 68 26.34 68 26 68 C26.0314209 66.78437378 26.0314209 66.78437378 26.06347656 65.54418945 C26.13258507 62.47082922 26.18224459 59.39787113 26.21972656 56.32397461 C26.24919327 54.36610224 26.30007758 52.40858901 26.3515625 50.45117188 C26.43071466 42.674472 25.58891469 36.22740654 22.96386719 28.89135742 C21.97741565 25.93225266 21.43626737 23.08392941 21 20 C19.515 20.495 19.515 20.495 18 21 C16.60560336 21.06665376 15.20830125 21.08538199 13.8125 21.0625 C11.9253125 21.0315625 11.9253125 21.0315625 10 21 C10 20.67 10 20.34 10 20 C11.92057292 19.54427083 13.84114583 19.08854167 15.76171875 18.6328125 C20.93576658 17.39120404 20.93576658 17.39120404 24.36328125 13.6171875 C24.67652344 12.71226563 24.98976563 11.80734375 25.3125 10.875 C25.63863281 9.96492188 25.96476562 9.05484375 26.30078125 8.1171875 C26.53152344 7.41851562 26.76226562 6.71984375 27 6 C22.89517579 6.6416993 18.79126508 7.28906473 14.6875 7.9375 C12.93663086 8.21110352 12.93663086 8.21110352 11.15039062 8.49023438 C10.03212891 8.66748047 8.91386719 8.84472656 7.76171875 9.02734375 C6.73006592 9.18968506 5.69841309 9.35202637 4.63549805 9.51928711 C1.90509209 9.95337788 1.90509209 9.95337788 -1 11 C-7.36270252 12.02257719 -13.56383705 12.10648064 -20 12 C-20 11.67 -20 11.34 -20 11 C-17.36 10.34 -14.72 9.68 -12 9 C-17.02554857 7.3618017 -21.56888894 6.64721985 -26.875 6.6875 C-27.57391357 6.68806396 -28.27282715 6.68862793 -28.99291992 6.68920898 C-34.57938987 6.78835408 -38.84524684 7.99051995 -44 10 C-44.99 9.67 -45.98 9.34 -47 9 C-34.68348682 2.69852814 -25.82990154 2.27888864 -12.69921875 5.9921875 C-6.25568712 7.74765863 -1.5227183 8.01214594 5 7 C4.20882096 5.00016466 4.20882096 5.00016466 3 3 C2.01 2.67 1.02 2.34 0 2 C0 1.34 0 0.68 0 0 Z " fill="#A1D3DF" transform="translate(93,23)"/>
<path d="M0 0 C4.8668698 4.20320573 5.6582121 9.84158054 6.1640625 15.99609375 C6.50703168 24.74180791 4.45375959 33.05885143 -1 40 C-1.556875 40.825 -2.11375 41.65 -2.6875 42.5 C-9.19376952 49.53380489 -17.66349438 53.69324715 -27.2421875 54.09375 C-31.02925294 54.14341643 -34.33750839 54.04405869 -38 53 C-38.82091181 46.19815931 -38.82091181 46.19815931 -36.79296875 43.23828125 C-32.75057473 39.47989618 -28.57610855 38.01339463 -23.30078125 36.64453125 C-19.03136922 35.448516 -15.94514734 33.25516285 -13 30 C-13 31.32 -13 32.64 -13 34 C-13.66 34 -14.32 34 -15 34 C-15 34.66 -15 35.32 -15 36 C-19.21730674 38.5055201 -23.03935721 40.74802812 -27.8125 42 C-31.67576556 43.21200488 -32.85946431 44.62453988 -35 48 C-35.33 48.99 -35.66 49.98 -36 51 C-24.87084263 51.35330658 -15.44591523 49.28309376 -6 43 C-4.96265395 41.35631787 -3.95647955 39.69201792 -3 38 C-2.01 37.67 -1.02 37.34 0 37 C0.185625 35.4840625 0.185625 35.4840625 0.375 33.9375 C1 30 1 30 2.0625 26.6875 C4.11750899 18.60446464 3.08695623 12.58876739 0 5 C-0.1875 2 -0.1875 2 0 0 Z " fill="#EC8384" transform="translate(95,53)"/>
<path d="M0 0 C7.33813334 -0.5644718 13.16088115 1.44672896 20 4 C20.33 5.65 20.66 7.3 21 9 C20.67 8.01 20.34 7.02 20 6 C18.29159719 7.63412443 17.06546953 8.86906094 16 11 C13.11504794 11.96165069 11.01406646 12.22728086 8 12.3125 C7.13375 12.34988281 6.2675 12.38726562 5.375 12.42578125 C3 12 3 12 1.19921875 10.24609375 C-0.6912384 6.70533524 -0.19822289 3.9644578 0 0 Z " fill="#C9586F" transform="translate(54,72)"/>
<path d="M0 0 C3.945119 2.08421381 6.66264249 4.20768797 9 8 C9.75372168 12.95830637 9.61545126 17.57327207 7.625 22.1875 C7.08875 22.785625 6.5525 23.38375 6 24 C5.34 24 4.68 24 4 24 C4 24.66 4 25.32 4 26 C2.39950296 26.39036513 0.79437629 26.76178619 -0.8125 27.125 C-1.70582031 27.33382812 -2.59914063 27.54265625 -3.51953125 27.7578125 C-6 28 -6 28 -9 26 C-6.03 25.67 -3.06 25.34 0 25 C0.28875 24.195625 0.5775 23.39125 0.875 22.5625 C2 20 2 20 4 19 C0.7 18.01 -2.6 17.02 -6 16 C-6 15.34 -6 14.68 -6 14 C-4.58461283 13.66127487 -3.16762037 13.32925376 -1.75 13 C-0.56664063 12.7215625 -0.56664063 12.7215625 0.640625 12.4375 C3 12 3 12 7 12 C6.15460681 8.28026999 5.28256929 6.28256929 2.5625 3.5625 C-2.47419267 1.35342427 -6.67382422 2.12809934 -12 3 C-8.1572357 -0.21938254 -4.92507159 -0.8635482 0 0 Z " fill="#BEB5C1" transform="translate(70,58)"/>
<path d="M0 0 C2.56000455 1.1702878 4.9526295 2.5752659 7.37109375 4.01171875 C9.87015404 5.37142252 12.46438553 6.20299089 15.1875 7 C15.1875 7.33 15.1875 7.66 15.1875 8 C0.17223282 10.99236641 0.17223282 10.99236641 -3.8125 9 C-3.8125 10.98 -3.8125 12.96 -3.8125 15 C-4.4725 14.67 -5.1325 14.34 -5.8125 14 C-6.43395499 4.95437731 -6.43395499 4.95437731 -4.0625 1.3125 C-1.8125 0 -1.8125 0 0 0 Z " fill="#837FA3" transform="translate(57.8125,63)"/>
<path d="M0 0 C0.66 0 1.32 0 2 0 C10.77652127 16.68579736 10.88701035 31.23080981 7 49 C6.67 49 6.34 49 6 49 C6.02094727 48.18958252 6.04189453 47.37916504 6.06347656 46.54418945 C6.13258507 43.47082922 6.18224459 40.39787113 6.21972656 37.32397461 C6.24919327 35.36610224 6.30007758 33.40858901 6.3515625 31.45117188 C6.44200627 22.56507125 5.01905111 15.32923982 2 7 C1.56906176 5.56671371 1.14938853 4.12989598 0.75 2.6875 C0.5025 1.800625 0.255 0.91375 0 0 Z " fill="#E8A6AA" transform="translate(113,42)"/>
<path d="M0 0 C0 0.99 0 1.98 0 3 C-2.64458379 4.32229189 -4.67761301 4.09677194 -7.625 4.0625 C-8.62789062 4.05347656 -9.63078125 4.04445313 -10.6640625 4.03515625 C-11.43492188 4.02355469 -12.20578125 4.01195312 -13 4 C-13 3.67 -13 3.34 -13 3 C-10.36 2.34 -7.72 1.68 -5 1 C-10.02554857 -0.6381983 -14.56888894 -1.35278015 -19.875 -1.3125 C-20.57391357 -1.31193604 -21.27282715 -1.31137207 -21.99291992 -1.31079102 C-27.57938987 -1.21164592 -31.84524684 -0.00948005 -37 2 C-37.99 1.67 -38.98 1.34 -40 1 C-38.00934459 -0.01847486 -36.00751815 -1.01517978 -34 -2 C-33.2575 -2.37125 -32.515 -2.7425 -31.75 -3.125 C-21.04854558 -6.53000823 -10.16430973 -4.36702989 0 0 Z " fill="#9CC7D2" transform="translate(86,31)"/>
<path d="M0 0 C4.8668698 4.20320573 5.6582121 9.84158054 6.1640625 15.99609375 C6.50703168 24.74180791 4.45375959 33.05885143 -1 40 C-1.7425 40.94875 -2.485 41.8975 -3.25 42.875 C-3.8275 43.57625 -4.405 44.2775 -5 45 C-5.66 44.67 -6.32 44.34 -7 44 C-3.375 38.125 -3.375 38.125 0 37 C0.12375 35.989375 0.2475 34.97875 0.375 33.9375 C1 30 1 30 2.0625 26.6875 C4.11750899 18.60446464 3.08695623 12.58876739 0 5 C-0.1875 2 -0.1875 2 0 0 Z " fill="#E1A9AF" transform="translate(95,53)"/>
<path d="M0 0 C4.95831767 4.64575896 6.98865172 9.67382143 7.32421875 16.453125 C7.35646263 18.07268417 7.37321974 19.69262087 7.375 21.3125 C7.37653076 22.10148682 7.37806152 22.89047363 7.37963867 23.70336914 C7.30359964 27.67906356 7.10659612 30.53354892 5 34 C4.5845535 35.40533756 4.20799564 36.82287585 3.875 38.25 C3.58625 39.4875 3.2975 40.725 3 42 C2.01 42 1.02 42 0 42 C0.48758627 39.80586179 1.05258552 37.8853056 1.9921875 35.8359375 C3.23302128 32.34428896 3.54324858 28.98071222 3.75 25.3125 C3.79165283 24.60424072 3.83330566 23.89598145 3.8762207 23.16625977 C4.13038905 17.51857475 3.56918152 12.44715878 2 7 C1.80792969 6.28714844 1.61585937 5.57429688 1.41796875 4.83984375 C0.9701943 3.2194801 0.48947033 1.60825966 0 0 Z " fill="#E6B8BD" transform="translate(104,51)"/>
<path d="M0 0 C0.66 0.33 1.32 0.66 2 1 C-3.01829651 6.9219126 -8.16430096 12.86553567 -14 18 C-14.66 18 -15.32 18 -16 18 C-16.268125 18.70125 -16.53625 19.4025 -16.8125 20.125 C-18.0681449 23.1649824 -19.50235123 26.0727774 -21 29 C-21.33 28.34 -21.66 27.68 -22 27 C-17.98183238 15.58225594 -9.74308529 6.81113833 0 0 Z " fill="#8AC9DB" transform="translate(35,24)"/>
<path d="M0 0 C1.15234131 0.00209473 2.30468262 0.00418945 3.49194336 0.00634766 C11.80279838 0.16028502 19.12844722 0.93210517 26.3125 5.5 C26.8075 6.49 26.8075 6.49 27.3125 7.5 C18.8975 5.52 18.8975 5.52 10.3125 3.5 C10.3125 2.84 10.3125 2.18 10.3125 1.5 C1.92613874 1.8998516 -6.23602595 2.3324298 -14.453125 4.1953125 C-16.85984744 4.52350192 -18.37419463 4.14541827 -20.6875 3.5 C-13.74084744 0.31858543 -7.58761508 -0.04036256 0 0 Z " fill="#C1D4DB" transform="translate(65.6875,15.5)"/>
<path d="M0 0 C2.5919224 0.93597198 4.67775444 1.72298189 6.78125 3.53125 C9.65874568 5.43607108 11.82688848 5.50146133 15.25 5.6875 C16.32765625 5.75324219 17.4053125 5.81898437 18.515625 5.88671875 C19.33546875 5.92410156 20.1553125 5.96148438 21 6 C21 6.33 21 6.66 21 7 C20.44014404 7.08564209 19.88028809 7.17128418 19.3034668 7.25952148 C16.76438792 7.64948061 14.22594632 8.04344516 11.6875 8.4375 C10.36588867 8.63956055 10.36588867 8.63956055 9.01757812 8.84570312 C8.17001953 8.97783203 7.32246094 9.10996094 6.44921875 9.24609375 C5.27879028 9.42676392 5.27879028 9.42676392 4.0847168 9.61108398 C1.81720203 9.98488611 1.81720203 9.98488611 -1 11 C-2.99961564 11.03920815 -5.00049364 11.04443347 -7 11 C-7 10.34 -7 9.68 -7 9 C-5.7625 8.67 -4.525 8.34 -3.25 8 C-2.20585938 7.7215625 -2.20585938 7.7215625 -1.140625 7.4375 C1 7 1 7 5 7 C4.20882096 5.00016466 4.20882096 5.00016466 3 3 C2.01 2.67 1.02 2.34 0 2 C0 1.34 0 0.68 0 0 Z " fill="#84ABBF" transform="translate(93,23)"/>
<path d="M0 0 C7.75 -0.125 7.75 -0.125 10 1 C10 2.32 10 3.64 10 5 C9.34 5 8.68 5 8 5 C8.33 6.32 8.66 7.64 9 9 C8.34 9 7.68 9 7 9 C6.67 9.66 6.34 10.32 6 11 C5.67 10.34 5.34 9.68 5 9 C4.154375 8.5875 3.30875 8.175 2.4375 7.75 C1.633125 7.1725 0.82875 6.595 0 6 C-0.3125 2.8125 -0.3125 2.8125 0 0 Z " fill="#7E4273" transform="translate(54,72)"/>
<path d="M0 0 C0.33 1.32 0.66 2.64 1 4 C0.34 4 -0.32 4 -1 4 C-1 4.66 -1 5.32 -1 6 C-5.4227851 9.20102126 -9.9010398 10.00411769 -15.16015625 11.05859375 C-18.42768344 12.14177677 -19.86956846 13.32330396 -22 16 C-22.80315654 19.14481791 -22.80315654 19.14481791 -23 22 C-19.04 22.33 -15.08 22.66 -11 23 C-11 23.33 -11 23.66 -11 24 C-12.41655793 24.0272415 -13.83327045 24.04650467 -15.25 24.0625 C-16.43335937 24.07990234 -16.43335937 24.07990234 -17.640625 24.09765625 C-19.90691002 24.00385306 -21.8288895 23.63241063 -24 23 C-24.82091181 16.19815931 -24.82091181 16.19815931 -22.79296875 13.23828125 C-18.75148116 9.48073893 -14.57818441 8.01499929 -9.3046875 6.64453125 C-4.88079597 5.40734125 -2.52779599 3.79169399 0 0 Z " fill="#EADBDC" transform="translate(81,83)"/>
<path d="M0 0 C3.4375 0.6875 3.4375 0.6875 5.4375 1.6875 C6.0625 3.75 6.0625 3.75 6.4375 5.6875 C2.35306885 7.21916168 -1.35705657 6.31831652 -5.5625 5.6875 C-5.8925 4.3675 -6.2225 3.0475 -6.5625 1.6875 C-3.5625 -0.3125 -3.5625 -0.3125 0 0 Z " fill="#32AFCC" transform="translate(67.5625,59.3125)"/>
<path d="M0 0 C0.66 0 1.32 0 2 0 C6.17711063 8.52959613 9.49475926 16.35219438 9 26 C8.67 26 8.34 26 8 26 C7.51080078 24.31583984 7.51080078 24.31583984 7.01171875 22.59765625 C4.80166758 15.01852554 2.5784657 7.46397965 0 0 Z " fill="#E4C3C6" transform="translate(113,42)"/>
<path d="M0 0 C1.04449911 3.13349732 0.93423645 3.98968256 0 7 C-0.66 7 -1.32 7 -2 7 C-2 7.66 -2 8.32 -2 9 C-3.60049704 9.39036513 -5.20562371 9.76178619 -6.8125 10.125 C-7.70582031 10.33382812 -8.59914063 10.54265625 -9.51953125 10.7578125 C-12 11 -12 11 -15 9 C-10.545 8.505 -10.545 8.505 -6 8 C-5.71125 7.195625 -5.4225 6.39125 -5.125 5.5625 C-4 3 -4 3 -2 2 C-1.34 1.34 -0.68 0.68 0 0 Z " fill="#DF9EA5" transform="translate(76,75)"/>
<path d="M0 0 C3.87132028 0.57352893 6.08172796 2.48704352 9 5 C8.34 5 7.68 5 7 5 C7 5.66 7 6.32 7 7 C2.545 6.01 2.545 6.01 -2 5 C-1.34 3.35 -0.68 1.7 0 0 Z " fill="#36679E" transform="translate(56,63)"/>
<path d="M0 0 C4.54805635 -0.17835515 7.8794254 0.00214565 12 2 C12 2.99 12 3.98 12 5 C9.35541621 6.32229189 7.32238699 6.09677194 4.375 6.0625 C3.37210937 6.05347656 2.36921875 6.04445313 1.3359375 6.03515625 C0.56507812 6.02355469 -0.20578125 6.01195312 -1 6 C-1 5.67 -1 5.34 -1 5 C1.64 4.34 4.28 3.68 7 3 C4.69 2.34 2.38 1.68 0 1 C0 0.67 0 0.34 0 0 Z " fill="#C5CDD4" transform="translate(74,29)"/>
<path d="M0 0 C4.34968011 3.75654192 5.36030503 8.45597696 6 14 C6.0738257 17.002245 6.0600472 19.99764007 6 23 C5.67 23 5.34 23 5 23 C4.89042969 22.3709375 4.78085938 21.741875 4.66796875 21.09375 C3.8721681 16.79772046 3.01298684 12.74753372 1.375 8.6875 C0.15401999 5.4130536 -0.32082539 3.42213747 0 0 Z " fill="#D9CDD2" transform="translate(95,53)"/>
<path d="M0 0 C1.8466683 3.14590528 2.24774283 5.43150052 2.1875 9.0625 C2.18105469 9.91972656 2.17460938 10.77695313 2.16796875 11.66015625 C2 14 2 14 1 17 C0.01 17 -0.98 17 -2 17 C-1.76990234 16.21882813 -1.76990234 16.21882813 -1.53515625 15.421875 C-0.86017489 12.36721485 -0.65588882 9.36984029 -0.4375 6.25 C-0.35371094 5.07953125 -0.26992187 3.9090625 -0.18359375 2.703125 C-0.12300781 1.81109375 -0.06242187 0.9190625 0 0 Z " fill="#EAC1C6" transform="translate(84,66)"/>
<path d="M0 0 C1 3 1 3 -0.0625 6.0625 C-2 9 -2 9 -4.6875 10.375 C-8.58420686 11.11022771 -12.03960705 11.13656527 -16 11 C-16 10.67 -16 10.34 -16 10 C-14.783125 9.71125 -13.56625 9.4225 -12.3125 9.125 C-7.49663358 7.98050759 -7.49663358 7.98050759 -3 6 C-1.15725024 2.98303591 -1.15725024 2.98303591 0 0 Z " fill="#54ACC6" transform="translate(119,33)"/>
<path d="M0 0 C1.4540625 0.0309375 1.4540625 0.0309375 2.9375 0.0625 C3.2675 1.3825 3.5975 2.7025 3.9375 4.0625 C1.6275 4.3925 -0.6825 4.7225 -3.0625 5.0625 C-3.625 3.125 -3.625 3.125 -4.0625 1.0625 C-3.0625 0.0625 -3.0625 0.0625 0 0 Z " fill="#139BC6" transform="translate(65.0625,59.9375)"/>
<path d="M0 0 C2.95341135 0.13736797 5.20514952 0.35167499 7.546875 2.26171875 C8.9375 3.8125 8.9375 3.8125 11 7 C10.8125 9.375 10.8125 9.375 10 11 C9.34 9.35 8.68 7.7 8 6 C7.34 6 6.68 6 6 6 C6 5.34 6 4.68 6 4 C5.38125 3.71125 4.7625 3.4225 4.125 3.125 C2 2 2 2 0 0 Z " fill="#CEC8D0" transform="translate(73,54)"/>
<path d="M0 0 C0 0.66 0 1.32 0 2 C-2.64 2.66 -5.28 3.32 -8 4 C-8 5.65 -8 7.3 -8 9 C-10 8 -10 8 -11.125 4.9375 C-11.41375 3.968125 -11.7025 2.99875 -12 2 C-9.57762602 -0.42237398 -3.37180048 0 0 0 Z " fill="#B38391" transform="translate(114,43)"/>
<path d="M0 0 C0.66 0 1.32 0 2 0 C3.30267176 5.50016964 2.71033431 10.47032059 2 16 C0.68 15.34 -0.64 14.68 -2 14 C-1.34 13.34 -0.68 12.68 0 12 C0.24339551 9.10116917 0.24339551 9.10116917 0.125 5.875 C0.10695313 4.77929688 0.08890625 3.68359375 0.0703125 2.5546875 C0.04710937 1.71164063 0.02390625 0.86859375 0 0 Z " fill="#3B3E82" transform="translate(30,99)"/>
<path d="M0 0 C0.33 0 0.66 0 1 0 C1 2.64 1 5.28 1 8 C0.67 7.34 0.34 6.68 0 6 C-1.65 6 -3.3 6 -5 6 C-5 5.34 -5 4.68 -5 4 C-5.66 3.67 -6.32 3.34 -7 3 C-3.535 2.505 -3.535 2.505 0 2 C0 1.34 0 0.68 0 0 Z " fill="#95919F" transform="translate(77,68)"/>
<path d="M0 0 C-2.4207517 2.4207517 -4.08291315 2.71961985 -7.375 3.5625 C-8.33148438 3.81128906 -9.28796875 4.06007813 -10.2734375 4.31640625 C-11.62308594 4.65478516 -11.62308594 4.65478516 -13 5 C-13.77601562 5.19464844 -14.55203125 5.38929687 -15.3515625 5.58984375 C-15.89554688 5.72519531 -16.43953125 5.86054687 -17 6 C-12.52065561 1.04914568 -6.56253064 -0.4921898 0 0 Z " fill="#CACDD7" transform="translate(63,37)"/>
<path d="M0 0 C1.49080078 0.29197266 1.49080078 0.29197266 3.01171875 0.58984375 C4.15060547 0.82380859 4.15060547 0.82380859 5.3125 1.0625 C5.3125 1.3925 5.3125 1.7225 5.3125 2.0625 C-0.6275 2.0625 -6.5675 2.0625 -12.6875 2.0625 C-7.61452119 -0.47398941 -5.46032359 -1.09206472 0 0 Z " fill="#A4BFC8" transform="translate(72.6875,26.9375)"/>
<path d="M0 0 C0.33 1.32 0.66 2.64 1 4 C0.34 4 -0.32 4 -1 4 C-1 4.66 -1 5.32 -1 6 C-3.3125 7.6875 -3.3125 7.6875 -6 9 C-6.99 8.67 -7.98 8.34 -9 8 C-8.34 8 -7.68 8 -7 8 C-6.67 7.01 -6.34 6.02 -6 5 C-4.67532254 4.3162955 -3.34136367 3.65035814 -2 3 C-1.34 2.01 -0.68 1.02 0 0 Z " fill="#ECA9AC" transform="translate(81,83)"/>
<path d="M0 0 C-0.33 0.66 -0.66 1.32 -1 2 C-5.62 2 -10.24 2 -15 2 C-15 1.67 -15 1.34 -15 1 C-13.0641649 0.63684334 -11.12624752 0.28477269 -9.1875 -0.0625 C-8.10855469 -0.25972656 -7.02960938 -0.45695312 -5.91796875 -0.66015625 C-3 -1 -3 -1 0 0 Z " fill="#E88B8B" transform="translate(77,104)"/>
<path d="M0 0 C1.32 0 2.64 0 4 0 C4.33 1.65 4.66 3.3 5 5 C4.34 5 3.68 5 3 5 C2.67 5.66 2.34 6.32 2 7 C1.67 6.34 1.34 5.68 1 5 C0.01 4.34 -0.98 3.68 -2 3 C-1.34 2.01 -0.68 1.02 0 0 Z " fill="#A43965" transform="translate(58,76)"/>
<path d="M0 0 C0.33 0.66 0.66 1.32 1 2 C1.66 2 2.32 2 3 2 C3 3.32 3 4.64 3 6 C3.66 6 4.32 6 5 6 C3.25 9.875 3.25 9.875 1 11 C0.67 7.37 0.34 3.74 0 0 Z " fill="#D26F80" transform="translate(85,66)"/>
<path d="M0 0 C0.33 0.99 0.66 1.98 1 3 C-0.21484375 4.82421875 -0.21484375 4.82421875 -1.9375 6.6875 C-2.50339844 7.31011719 -3.06929688 7.93273437 -3.65234375 8.57421875 C-4.09707031 9.04472656 -4.54179688 9.51523438 -5 10 C-5.66 9.67 -6.32 9.34 -7 9 C-3.375 3.125 -3.375 3.125 0 2 C0 1.34 0 0.68 0 0 Z " fill="#EABFC0" transform="translate(95,88)"/>
<path d="M0 0 C1.32 0.99 2.64 1.98 4 3 C3.67 3.99 3.34 4.98 3 6 C0.69 6 -1.62 6 -4 6 C-3.34 5.38125 -2.68 4.7625 -2 4.125 C0.2284549 2.24362573 0.2284549 2.24362573 0 0 Z " fill="#52A9C0" transform="translate(73,62)"/>
<path d="M0 0 C0.33 0 0.66 0 1 0 C1.125 6.75 1.125 6.75 0 9 C-0.99 9 -1.98 9 -3 9 C-2.30058404 5.85262818 -1.23921302 2.97411124 0 0 Z " fill="#E3B0B8" transform="translate(107,84)"/>
<path d="M0 0 C2.97 0.495 2.97 0.495 6 1 C5.01 1.495 5.01 1.495 4 2 C4 2.66 4 3.32 4 4 C2.02 4 0.04 4 -2 4 C-1.34 3.67 -0.68 3.34 0 3 C0 2.01 0 1.02 0 0 Z " fill="#A55A7A" transform="translate(64,74)"/>
<path d="M0 0 C7.75 0.75 7.75 0.75 10 3 C2.25 3.125 2.25 3.125 0 2 C0 1.34 0 0.68 0 0 Z " fill="#5C82A4" transform="translate(63,68)"/>
<path d="M0 0 C-3.75 3 -3.75 3 -6 3 C-6 3.66 -6 4.32 -6 5 C-7.32 5.33 -8.64 5.66 -10 6 C-9.67 5.34 -9.34 4.68 -9 4 C-8.34 4 -7.68 4 -7 4 C-6.67 2.68 -6.34 1.36 -6 0 C-2.25 -1.125 -2.25 -1.125 0 0 Z " fill="#AFD3DC" transform="translate(46,34)"/>
<path d="M0 0 C1.98 0 3.96 0 6 0 C5.67 0.99 5.34 1.98 5 3 C3.02 3.33 1.04 3.66 -1 4 C-0.67 2.68 -0.34 1.36 0 0 Z " fill="#DF4A61" transform="translate(65,80)"/>
<path d="M0 0 C1.98 0.66 3.96 1.32 6 2 C6 3.32 6 4.64 6 6 C5.01 6 4.02 6 3 6 C0 2.66666667 0 2.66666667 0 0 Z " fill="#CEA4B3" transform="translate(54,78)"/>
<path d="M0 0 C0.99 0 1.98 0 3 0 C1.63016497 3.16115776 1.0109362 3.9927092 -2 6 C-1.125 1.125 -1.125 1.125 0 0 Z " fill="#8CC4D4" transform="translate(33,40)"/>
</svg>
